<mxfile host="app.diagrams.net" modified="2023-08-04T16:47:48.439Z" agent="Mozilla/5.0 (Macintosh; Intel Mac OS X 10_15_7) AppleWebKit/537.36 (KHTML, like Gecko) Chrome/115.0.0.0 Safari/537.36" etag="UhwW1ecpekrb1yC0fB8G" version="21.6.6" type="device">
  <diagram id="C5RBs43oDa-KdzZeNtuy" name="Page-1">
    <mxGraphModel dx="678" dy="404" grid="1" gridSize="10" guides="1" tooltips="1" connect="1" arrows="1" fold="1" page="1" pageScale="1" pageWidth="827" pageHeight="1169" math="0" shadow="0">
      <root>
        <mxCell id="WIyWlLk6GJQsqaUBKTNV-0" />
        <mxCell id="WIyWlLk6GJQsqaUBKTNV-1" parent="WIyWlLk6GJQsqaUBKTNV-0" />
        <mxCell id="vW2kHyn6dd35HGm3GM-9-92" value="" style="edgeStyle=orthogonalEdgeStyle;rounded=0;orthogonalLoop=1;jettySize=auto;html=1;endArrow=block;endFill=0;" parent="WIyWlLk6GJQsqaUBKTNV-1" source="vW2kHyn6dd35HGm3GM-9-14" edge="1">
          <mxGeometry relative="1" as="geometry">
            <mxPoint x="220" y="240" as="targetPoint" />
          </mxGeometry>
        </mxCell>
        <mxCell id="vW2kHyn6dd35HGm3GM-9-14" value="검색 페이지" style="rounded=0;whiteSpace=wrap;html=1;" parent="WIyWlLk6GJQsqaUBKTNV-1" vertex="1">
          <mxGeometry x="160" y="140" width="120" height="60" as="geometry" />
        </mxCell>
        <mxCell id="vW2kHyn6dd35HGm3GM-9-91" value="" style="edgeStyle=orthogonalEdgeStyle;rounded=0;orthogonalLoop=1;jettySize=auto;html=1;endArrow=block;endFill=0;" parent="WIyWlLk6GJQsqaUBKTNV-1" source="vW2kHyn6dd35HGm3GM-9-20" target="vW2kHyn6dd35HGm3GM-9-14" edge="1">
          <mxGeometry relative="1" as="geometry" />
        </mxCell>
        <mxCell id="vW2kHyn6dd35HGm3GM-9-20" value="홈페이지" style="rounded=1;whiteSpace=wrap;html=1;" parent="WIyWlLk6GJQsqaUBKTNV-1" vertex="1">
          <mxGeometry x="160" y="40" width="120" height="60" as="geometry" />
        </mxCell>
        <mxCell id="vW2kHyn6dd35HGm3GM-9-94" value="" style="edgeStyle=orthogonalEdgeStyle;rounded=0;orthogonalLoop=1;jettySize=auto;html=1;endArrow=block;endFill=0;entryX=0.5;entryY=0;entryDx=0;entryDy=0;" parent="WIyWlLk6GJQsqaUBKTNV-1" source="vW2kHyn6dd35HGm3GM-9-36" edge="1" target="vW2kHyn6dd35HGm3GM-9-98">
          <mxGeometry relative="1" as="geometry">
            <mxPoint x="220" y="550" as="targetPoint" />
          </mxGeometry>
        </mxCell>
        <mxCell id="vW2kHyn6dd35HGm3GM-9-36" value="형종별 데이터 분포 페이지" style="rounded=0;whiteSpace=wrap;html=1;" parent="WIyWlLk6GJQsqaUBKTNV-1" vertex="1">
          <mxGeometry x="160" y="460" width="120" height="60" as="geometry" />
        </mxCell>
        <mxCell id="vW2kHyn6dd35HGm3GM-9-96" value="" style="edgeStyle=orthogonalEdgeStyle;rounded=0;orthogonalLoop=1;jettySize=auto;html=1;endArrow=block;endFill=0;entryX=0.5;entryY=0;entryDx=0;entryDy=0;" parent="WIyWlLk6GJQsqaUBKTNV-1" source="vW2kHyn6dd35HGm3GM-9-57" edge="1" target="vW2kHyn6dd35HGm3GM-9-100">
          <mxGeometry relative="1" as="geometry">
            <mxPoint x="220" y="750" as="targetPoint" />
          </mxGeometry>
        </mxCell>
        <mxCell id="vW2kHyn6dd35HGm3GM-9-57" value="형량별 데이터 분포 페이지" style="rounded=0;whiteSpace=wrap;html=1;" parent="WIyWlLk6GJQsqaUBKTNV-1" vertex="1">
          <mxGeometry x="160" y="660" width="120" height="60" as="geometry" />
        </mxCell>
        <mxCell id="j58Wr5U2b5GrT-kt08b2-14" value="" style="edgeStyle=orthogonalEdgeStyle;rounded=0;orthogonalLoop=1;jettySize=auto;html=1;endArrow=block;endFill=0;" edge="1" parent="WIyWlLk6GJQsqaUBKTNV-1" source="vW2kHyn6dd35HGm3GM-9-98" target="vW2kHyn6dd35HGm3GM-9-57">
          <mxGeometry relative="1" as="geometry" />
        </mxCell>
        <mxCell id="vW2kHyn6dd35HGm3GM-9-98" value="형량 종류 선택" style="shape=parallelogram;perimeter=parallelogramPerimeter;whiteSpace=wrap;html=1;fixedSize=1;" parent="WIyWlLk6GJQsqaUBKTNV-1" vertex="1">
          <mxGeometry x="160" y="560" width="120" height="60" as="geometry" />
        </mxCell>
        <mxCell id="j58Wr5U2b5GrT-kt08b2-38" value="" style="edgeStyle=orthogonalEdgeStyle;rounded=0;orthogonalLoop=1;jettySize=auto;html=1;endArrow=block;endFill=0;" edge="1" parent="WIyWlLk6GJQsqaUBKTNV-1" source="vW2kHyn6dd35HGm3GM-9-100" target="j58Wr5U2b5GrT-kt08b2-13">
          <mxGeometry relative="1" as="geometry" />
        </mxCell>
        <mxCell id="vW2kHyn6dd35HGm3GM-9-100" value="형량 범위 선택" style="shape=parallelogram;perimeter=parallelogramPerimeter;whiteSpace=wrap;html=1;fixedSize=1;" parent="WIyWlLk6GJQsqaUBKTNV-1" vertex="1">
          <mxGeometry x="160" y="760" width="120" height="60" as="geometry" />
        </mxCell>
        <mxCell id="j58Wr5U2b5GrT-kt08b2-36" value="" style="edgeStyle=orthogonalEdgeStyle;rounded=0;orthogonalLoop=1;jettySize=auto;html=1;endArrow=block;endFill=0;entryX=0.5;entryY=-0.005;entryDx=0;entryDy=0;entryPerimeter=0;" edge="1" parent="WIyWlLk6GJQsqaUBKTNV-1" source="vW2kHyn6dd35HGm3GM-9-105" target="j58Wr5U2b5GrT-kt08b2-34">
          <mxGeometry relative="1" as="geometry" />
        </mxCell>
        <mxCell id="vW2kHyn6dd35HGm3GM-9-105" value="마약 종류 선택" style="shape=parallelogram;perimeter=parallelogramPerimeter;whiteSpace=wrap;html=1;fixedSize=1;" parent="WIyWlLk6GJQsqaUBKTNV-1" vertex="1">
          <mxGeometry x="160" y="240" width="120" height="60" as="geometry" />
        </mxCell>
        <mxCell id="j58Wr5U2b5GrT-kt08b2-41" value="" style="edgeStyle=orthogonalEdgeStyle;rounded=0;orthogonalLoop=1;jettySize=auto;html=1;endArrow=block;endFill=0;" edge="1" parent="WIyWlLk6GJQsqaUBKTNV-1" source="j58Wr5U2b5GrT-kt08b2-13" target="j58Wr5U2b5GrT-kt08b2-40">
          <mxGeometry relative="1" as="geometry" />
        </mxCell>
        <mxCell id="j58Wr5U2b5GrT-kt08b2-13" value="판례 조회 페이지" style="rounded=0;whiteSpace=wrap;html=1;" vertex="1" parent="WIyWlLk6GJQsqaUBKTNV-1">
          <mxGeometry x="160" y="860" width="120" height="60" as="geometry" />
        </mxCell>
        <mxCell id="j58Wr5U2b5GrT-kt08b2-16" value="Yes" style="text;strokeColor=none;align=center;fillColor=none;html=1;verticalAlign=middle;whiteSpace=wrap;rounded=0;fontSize=12;" vertex="1" parent="WIyWlLk6GJQsqaUBKTNV-1">
          <mxGeometry x="210" y="420" width="60" height="25" as="geometry" />
        </mxCell>
        <mxCell id="j58Wr5U2b5GrT-kt08b2-17" value="No" style="text;strokeColor=none;align=center;fillColor=none;html=1;verticalAlign=middle;whiteSpace=wrap;rounded=0;" vertex="1" parent="WIyWlLk6GJQsqaUBKTNV-1">
          <mxGeometry x="270" y="380" width="60" height="30" as="geometry" />
        </mxCell>
        <mxCell id="j58Wr5U2b5GrT-kt08b2-37" value="" style="edgeStyle=orthogonalEdgeStyle;rounded=0;orthogonalLoop=1;jettySize=auto;html=1;endArrow=block;endFill=0;" edge="1" parent="WIyWlLk6GJQsqaUBKTNV-1" source="j58Wr5U2b5GrT-kt08b2-34" target="vW2kHyn6dd35HGm3GM-9-36">
          <mxGeometry relative="1" as="geometry" />
        </mxCell>
        <mxCell id="j58Wr5U2b5GrT-kt08b2-43" value="" style="edgeStyle=orthogonalEdgeStyle;rounded=0;orthogonalLoop=1;jettySize=auto;html=1;entryX=1;entryY=0.5;entryDx=0;entryDy=0;endArrow=block;endFill=0;" edge="1" parent="WIyWlLk6GJQsqaUBKTNV-1" source="j58Wr5U2b5GrT-kt08b2-34" target="vW2kHyn6dd35HGm3GM-9-14">
          <mxGeometry relative="1" as="geometry">
            <mxPoint x="330" y="160" as="targetPoint" />
            <Array as="points">
              <mxPoint x="320" y="380" />
              <mxPoint x="320" y="170" />
            </Array>
          </mxGeometry>
        </mxCell>
        <mxCell id="j58Wr5U2b5GrT-kt08b2-34" value="데이터 유무" style="html=1;whiteSpace=wrap;aspect=fixed;shape=isoRectangle;" vertex="1" parent="WIyWlLk6GJQsqaUBKTNV-1">
          <mxGeometry x="153.34" y="340" width="133.33" height="80" as="geometry" />
        </mxCell>
        <mxCell id="j58Wr5U2b5GrT-kt08b2-46" value="" style="edgeStyle=orthogonalEdgeStyle;rounded=0;orthogonalLoop=1;jettySize=auto;html=1;entryX=0;entryY=0.5;entryDx=0;entryDy=0;endArrow=block;endFill=0;" edge="1" parent="WIyWlLk6GJQsqaUBKTNV-1" source="j58Wr5U2b5GrT-kt08b2-40" target="j58Wr5U2b5GrT-kt08b2-13">
          <mxGeometry relative="1" as="geometry">
            <mxPoint x="120" y="850" as="targetPoint" />
            <Array as="points">
              <mxPoint x="121" y="1000" />
              <mxPoint x="121" y="890" />
            </Array>
          </mxGeometry>
        </mxCell>
        <mxCell id="j58Wr5U2b5GrT-kt08b2-49" value="" style="edgeStyle=orthogonalEdgeStyle;rounded=0;orthogonalLoop=1;jettySize=auto;html=1;endArrow=block;endFill=0;" edge="1" parent="WIyWlLk6GJQsqaUBKTNV-1" source="j58Wr5U2b5GrT-kt08b2-40">
          <mxGeometry relative="1" as="geometry">
            <mxPoint x="320" y="380" as="targetPoint" />
          </mxGeometry>
        </mxCell>
        <mxCell id="j58Wr5U2b5GrT-kt08b2-40" value="다음 페이지" style="html=1;whiteSpace=wrap;aspect=fixed;shape=isoRectangle;" vertex="1" parent="WIyWlLk6GJQsqaUBKTNV-1">
          <mxGeometry x="153.34" y="960" width="133.33" height="80" as="geometry" />
        </mxCell>
        <mxCell id="j58Wr5U2b5GrT-kt08b2-47" value="Yes" style="text;strokeColor=none;align=center;fillColor=none;html=1;verticalAlign=middle;whiteSpace=wrap;rounded=0;fontSize=12;" vertex="1" parent="WIyWlLk6GJQsqaUBKTNV-1">
          <mxGeometry x="110" y="1000" width="60" height="25" as="geometry" />
        </mxCell>
        <mxCell id="j58Wr5U2b5GrT-kt08b2-50" value="No" style="text;strokeColor=none;align=center;fillColor=none;html=1;verticalAlign=middle;whiteSpace=wrap;rounded=0;" vertex="1" parent="WIyWlLk6GJQsqaUBKTNV-1">
          <mxGeometry x="270" y="997.5" width="60" height="30" as="geometry" />
        </mxCell>
      </root>
    </mxGraphModel>
  </diagram>
</mxfile>
